Coordinates
version=1
nRows=24
nColumns=38
inDegrees=no

Units are S.I. units (second, meters, Newtons, ...)
If the header above contains a line with 'inDegrees', this indicates whether rotational values are in degrees (yes) or radians (no).

endheader
time	pelvis_tilt	pelvis_list	pelvis_rotation	pelvis_tx	pelvis_ty	pelvis_tz	hip_flexion_r	hip_adduction_r	hip_rotation_r	knee_angle_r	ankle_angle_r	subtalar_angle_r	mtp_angle_r	hip_flexion_l	hip_adduction_l	hip_rotation_l	knee_angle_l	ankle_angle_l	subtalar_angle_l	mtp_angle_l	lumbar_extension	lumbar_bending	lumbar_rotation	arm_flex_r	arm_add_r	arm_rot_r	elbow_flex_r	pro_sup_r	wrist_flex_r	wrist_dev_r	arm_flex_l	arm_add_l	arm_rot_l	elbow_flex_l	pro_sup_l	wrist_flex_l	wrist_dev_l
0.56	-3.12256	0.870329	1.42523	0.603177	0.92888	1.01709	1.08202	0.00838686	-0.0287616	0.584332	-0.19802	0	0	0.665958	-0.0342532	-0.268536	0.176909	-0.161529	0	0	0.756482	0.147617	0.273324	-0.513964	-0.191048	-0.0605568	0.43073	1.45155	0	0	-0.157755	-0.0732701	-0.786377	0.215748	1.5708	0	0
0.57	-3.11395	0.876904	1.41609	0.602526	0.917766	1.01627	1.07345	0.0171309	-0.0321221	0.524009	-0.209172	0	0	0.603777	-0.0415637	-0.249941	0.127902	-0.171952	0	0	0.743659	0.153755	0.272829	-0.514886	-0.193312	-0.0515588	0.433518	1.43661	0	0	-0.153803	-0.0714858	-0.785785	0.217338	1.5708	0	0
0.58	-3.12048	0.865836	1.43425	0.60284	0.907324	1.01526	1.0829	0.00819555	-0.0355076	0.460967	-0.228208	0	0	0.641696	-0.0271327	-0.281988	0.162156	-0.168385	0	0	0.757566	0.142601	0.266085	-0.512757	-0.190409	-0.0370015	0.421991	1.42275	0	0	-0.152359	-0.075482	-0.783606	0.214411	1.5708	0	0
0.59	-3.11959	0.864637	1.44061	0.602859	0.896463	1.01385	1.08239	0.00601928	-0.0401821	0.402539	-0.242052	0	0	0.625204	-0.023586	-0.294204	0.151721	-0.165874	0	0	0.756352	0.138823	0.261151	-0.512367	-0.190826	-0.0275609	0.420655	1.41638	0	0	-0.14925	-0.0761928	-0.782318	0.214793	1.5708	0	0
0.6	-3.1198	0.864019	1.44905	0.602925	0.885465	1.01227	1.08133	0.00226609	-0.0450585	0.346169	-0.258264	0	0	0.608154	-0.0176991	-0.300813	0.140412	-0.163854	0	0	0.754429	0.133416	0.255436	-0.510979	-0.191653	-0.0178324	0.418905	1.4119	0	0	-0.145681	-0.0772183	-0.782	0.214752	1.5708	0	0
0.61	-3.11776	0.864796	1.45644	0.603001	0.87446	1.01039	1.07884	-0.00131549	-0.0514123	0.292341	-0.274059	0	0	0.597268	-0.0134876	-0.306392	0.136889	-0.160475	0	0	0.749689	0.128492	0.247608	-0.508873	-0.193827	-0.00819925	0.419349	1.40936	0	0	-0.141386	-0.0776332	-0.783536	0.215469	1.5708	0	0
0.62	-3.11106	0.87451	1.4545	0.602781	0.862879	1.00832	1.06711	0.00106449	-0.0579403	0.24168	-0.287631	0	0	0.52542	-0.0145457	-0.278459	0.0848435	-0.165451	0	0	0.732253	0.12965	0.241925	-0.5071	-0.199231	7.34119e-06	0.426189	1.40778	0	0	-0.135783	-0.0757115	-0.786542	0.218189	1.5708	0	0
0.63	-3.10965	0.87627	1.46451	0.603053	0.851596	1.00611	1.06392	-0.00472232	-0.0656859	0.19379	-0.300833	0	0	0.508649	-0.00898597	-0.271984	0.0783065	-0.1638	0	0	0.726447	0.123121	0.231973	-0.503437	-0.202311	0.00869229	0.426214	1.40778	0	0	-0.130988	-0.0763677	-0.789992	0.218563	1.5708	0	0
0.64	-3.10725	0.876905	1.47458	0.603347	0.840316	1.00362	1.06171	-0.0105597	-0.0733854	0.148754	-0.314759	0	0	0.49518	-0.0051748	-0.260569	0.0739838	-0.159899	0	0	0.722093	0.116786	0.221072	-0.500365	-0.205668	0.0165384	0.426967	1.40913	0	0	-0.12662	-0.0769078	-0.794904	0.220096	1.5708	0	0
0.65	-3.10255	0.877095	1.48433	0.603709	0.829101	1.00095	1.05942	-0.0166216	-0.082232	0.106543	-0.32841	0	0	0.484145	-0.00307791	-0.246086	0.0726941	-0.154627	0	0	0.718001	0.110838	0.208291	-0.497335	-0.209388	0.0228165	0.428564	1.41094	0	0	-0.121942	-0.0772583	-0.801085	0.221815	1.5708	0	0
0.66	-3.09729	0.877786	1.49498	0.604177	0.817776	0.998314	1.05613	-0.023797	-0.0914351	0.0674473	-0.340315	0	0	0.472164	0.000901195	-0.237986	0.0752475	-0.148201	0	0	0.71368	0.104451	0.194729	-0.493976	-0.213075	0.0276963	0.429247	1.41335	0	0	-0.116635	-0.0778546	-0.807782	0.2222	1.5708	0	0
0.67	-3.09686	0.870119	1.51445	0.604889	0.806731	0.995564	1.06165	-0.0370072	-0.0982169	0.0326327	-0.350815	0	0	0.515986	0.0121174	-0.260484	0.123098	-0.129484	0	0	0.72097	0.0924028	0.179171	-0.490258	-0.214551	0.0312559	0.425071	1.41563	0	0	-0.113051	-0.0800867	-0.815929	0.221087	1.5708	0	0
0.68	-3.08845	0.87559	1.51487	0.604696	0.794848	0.992669	1.05304	-0.0363746	-0.100337	0.00150799	-0.352464	0	0	0.457029	0.00505413	-0.221007	0.0882203	-0.128843	0	0	0.71048	0.0939573	0.171617	-0.490398	-0.219921	0.0292061	0.43266	1.41724	0	0	-0.1078	-0.0786185	-0.82273	0.223145	1.5708	0	0
0.69	-3.08888	0.86735	1.53181	0.60502	0.783485	0.989901	1.06207	-0.0471653	-0.10825	0	-0.345015	0	0	0.50103	0.0156256	-0.244956	0.135016	-0.111287	0	0	0.718848	0.0843194	0.159759	-0.487986	-0.221012	0.0268883	0.428831	1.42048	0	0	-0.1051	-0.080639	-0.830212	0.221379	1.5708	0	0
0.7	-3.08265	0.873032	1.53131	0.60451	0.771075	0.987366	1.05615	-0.0448545	-0.111354	0	-0.330576	0	0	0.442512	0.00789093	-0.216252	0.106072	-0.113765	0	0	0.709229	0.0873634	0.155828	-0.487998	-0.225371	0.0198092	0.433565	1.42171	0	0	-0.100685	-0.0798026	-0.833256	0.220857	1.5708	0	0
0.71	-3.07852	0.871454	1.53682	0.604214	0.759064	0.984972	1.05758	-0.0468753	-0.108792	0	-0.32115	0	0	0.43855	0.00590362	-0.210576	0.11805	-0.110712	0	0	0.709233	0.0865128	0.149864	-0.487468	-0.228285	0.0134276	0.433629	1.42086	0	0	-0.0977477	-0.080199	-0.834013	0.218799	1.5708	0	0
0.72	-3.0743	0.869506	1.53999	0.603715	0.746863	0.982815	1.05992	-0.0466822	-0.101174	0	-0.315281	0	0	0.435395	0.00258067	-0.20571	0.130321	-0.10714	0	0	0.710129	0.0876118	0.145999	-0.487844	-0.23134	0.00592111	0.433725	1.41928	0	0	-0.0958347	-0.0801004	-0.834508	0.216681	1.5708	0	0
0.73	-3.07002	0.867686	1.54104	0.603052	0.734357	0.980961	1.06231	-0.0444731	-0.0902235	0	-0.314309	0	0	0.43215	-0.00145847	-0.203109	0.144249	-0.104941	0	0	0.71152	0.090598	0.143594	-0.488495	-0.234463	-0.00303823	0.433328	1.41599	0	0	-0.0951287	-0.0795457	-0.834997	0.214035	1.5708	0	0
0.74	-3.066	0.866118	1.54019	0.602222	0.721438	0.97941	1.06573	-0.0403655	-0.0808978	0.0175144	-0.316828	0	0	0.428989	-0.00625399	-0.203605	0.160731	-0.105498	0	0	0.713824	0.095312	0.143096	-0.489756	-0.23705	-0.0153315	0.432035	1.41017	0	0	-0.0957242	-0.0787468	-0.835222	0.210486	1.5708	0	0
0.75	-3.06189	0.865446	1.53773	0.601259	0.707947	0.978177	1.06856	-0.0345478	-0.0749581	0.0465544	-0.320307	0	0	0.424927	-0.011769	-0.206371	0.178153	-0.107938	0	0	0.717337	0.101391	0.144968	-0.493289	-0.238916	-0.0296135	0.430839	1.40374	0	0	-0.0978899	-0.0781282	-0.833315	0.206451	1.5708	0	0
0.76	-3.05739	0.865911	1.53457	0.600269	0.693946	0.977225	1.0681	-0.0275888	-0.0681397	0.0766103	-0.32176	0	0	0.419807	-0.0176644	-0.208849	0.196272	-0.111514	0	0	0.721133	0.108058	0.147357	-0.498381	-0.240948	-0.0431086	0.430246	1.39735	0	0	-0.101814	-0.0775979	-0.829574	0.202959	1.5708	0	0
0.77	-3.05226	0.867261	1.53126	0.599245	0.679443	0.976496	1.06385	-0.0196301	-0.0612861	0.10271	-0.320817	0	0	0.414257	-0.0240103	-0.209449	0.215181	-0.11775	0	0	0.725584	0.114906	0.149754	-0.504858	-0.242743	-0.0557368	0.429716	1.39085	0	0	-0.107379	-0.0773353	-0.825132	0.200233	1.5708	0	0
0.78	-3.04596	0.867721	1.52788	0.598183	0.664584	0.975899	1.05829	-0.0112962	-0.0553492	0.119908	-0.324228	0	0	0.411541	-0.0312664	-0.20801	0.238732	-0.125804	0	0	0.732923	0.122025	0.152078	-0.513582	-0.243887	-0.0683147	0.429592	1.38405	0	0	-0.11435	-0.0776333	-0.820076	0.197846	1.5708	0	0
0.79	-3.03863	0.865639	1.52374	0.596982	0.64971	0.975466	1.0547	-0.00363136	-0.0473646	0.126441	-0.338312	0	0	0.413752	-0.0392776	-0.200388	0.264819	-0.136158	0	0	0.744414	0.129994	0.155235	-0.524049	-0.244227	-0.080744	0.429272	1.37752	0	0	-0.121891	-0.0786001	-0.814483	0.195035	1.5708	0	0
